<mxfile host="Electron" modified="2024-04-11T12:37:29.166Z" agent="Mozilla/5.0 (Windows NT 10.0; Win64; x64) AppleWebKit/537.36 (KHTML, like Gecko) draw.io/24.1.0 Chrome/120.0.6099.109 Electron/28.1.0 Safari/537.36" etag="9kxatv48DY8lx1HwZPXf" version="24.1.0" type="device">
  <diagram id="R2lEEEUBdFMjLlhIrx00" name="Page-1">
    <mxGraphModel dx="662" dy="623" grid="1" gridSize="10" guides="0" tooltips="1" connect="0" arrows="1" fold="1" page="0" pageScale="1" pageWidth="1169" pageHeight="827" math="0" shadow="0" extFonts="Permanent Marker^https://fonts.googleapis.com/css?family=Permanent+Marker">
      <root>
        <mxCell id="0" />
        <mxCell id="1" parent="0" />
        <mxCell id="C-vyLk0tnHw3VtMMgP7b-2" value="Student" style="shape=table;startSize=30;container=1;collapsible=1;childLayout=tableLayout;fixedRows=1;rowLines=0;fontStyle=1;align=center;resizeLast=1;" parent="1" vertex="1">
          <mxGeometry x="540" y="494" width="250" height="130" as="geometry" />
        </mxCell>
        <mxCell id="C-vyLk0tnHw3VtMMgP7b-6" value="" style="shape=partialRectangle;collapsible=0;dropTarget=0;pointerEvents=0;fillColor=none;points=[[0,0.5],[1,0.5]];portConstraint=eastwest;top=0;left=0;right=0;bottom=0;" parent="C-vyLk0tnHw3VtMMgP7b-2" vertex="1">
          <mxGeometry y="30" width="250" height="30" as="geometry" />
        </mxCell>
        <mxCell id="C-vyLk0tnHw3VtMMgP7b-7" value="" style="shape=partialRectangle;overflow=hidden;connectable=0;fillColor=none;top=0;left=0;bottom=0;right=0;" parent="C-vyLk0tnHw3VtMMgP7b-6" vertex="1">
          <mxGeometry width="30" height="30" as="geometry">
            <mxRectangle width="30" height="30" as="alternateBounds" />
          </mxGeometry>
        </mxCell>
        <mxCell id="C-vyLk0tnHw3VtMMgP7b-8" value="student_id" style="shape=partialRectangle;overflow=hidden;connectable=0;fillColor=none;top=0;left=0;bottom=0;right=0;align=left;spacingLeft=6;fontStyle=7" parent="C-vyLk0tnHw3VtMMgP7b-6" vertex="1">
          <mxGeometry x="30" width="220" height="30" as="geometry">
            <mxRectangle width="220" height="30" as="alternateBounds" />
          </mxGeometry>
        </mxCell>
        <mxCell id="C-vyLk0tnHw3VtMMgP7b-9" value="" style="shape=partialRectangle;collapsible=0;dropTarget=0;pointerEvents=0;fillColor=none;points=[[0,0.5],[1,0.5]];portConstraint=eastwest;top=0;left=0;right=0;bottom=0;" parent="C-vyLk0tnHw3VtMMgP7b-2" vertex="1">
          <mxGeometry y="60" width="250" height="30" as="geometry" />
        </mxCell>
        <mxCell id="C-vyLk0tnHw3VtMMgP7b-10" value="" style="shape=partialRectangle;overflow=hidden;connectable=0;fillColor=none;top=0;left=0;bottom=0;right=0;" parent="C-vyLk0tnHw3VtMMgP7b-9" vertex="1">
          <mxGeometry width="30" height="30" as="geometry">
            <mxRectangle width="30" height="30" as="alternateBounds" />
          </mxGeometry>
        </mxCell>
        <mxCell id="C-vyLk0tnHw3VtMMgP7b-11" value="student_name" style="shape=partialRectangle;overflow=hidden;connectable=0;fillColor=none;top=0;left=0;bottom=0;right=0;align=left;spacingLeft=6;" parent="C-vyLk0tnHw3VtMMgP7b-9" vertex="1">
          <mxGeometry x="30" width="220" height="30" as="geometry">
            <mxRectangle width="220" height="30" as="alternateBounds" />
          </mxGeometry>
        </mxCell>
        <mxCell id="vgn4jwHnuVWzBRhZKFmy-1" value="" style="shape=partialRectangle;collapsible=0;dropTarget=0;pointerEvents=0;fillColor=none;points=[[0,0.5],[1,0.5]];portConstraint=eastwest;top=0;left=0;right=0;bottom=0;" vertex="1" parent="C-vyLk0tnHw3VtMMgP7b-2">
          <mxGeometry y="90" width="250" height="30" as="geometry" />
        </mxCell>
        <mxCell id="vgn4jwHnuVWzBRhZKFmy-2" value="" style="shape=partialRectangle;overflow=hidden;connectable=0;fillColor=none;top=0;left=0;bottom=0;right=0;" vertex="1" parent="vgn4jwHnuVWzBRhZKFmy-1">
          <mxGeometry width="30" height="30" as="geometry">
            <mxRectangle width="30" height="30" as="alternateBounds" />
          </mxGeometry>
        </mxCell>
        <mxCell id="vgn4jwHnuVWzBRhZKFmy-3" value="department_name" style="shape=partialRectangle;overflow=hidden;connectable=0;fillColor=none;top=0;left=0;bottom=0;right=0;align=left;spacingLeft=6;" vertex="1" parent="vgn4jwHnuVWzBRhZKFmy-1">
          <mxGeometry x="30" width="220" height="30" as="geometry">
            <mxRectangle width="220" height="30" as="alternateBounds" />
          </mxGeometry>
        </mxCell>
        <mxCell id="vgn4jwHnuVWzBRhZKFmy-10" value="Section" style="shape=table;startSize=30;container=1;collapsible=1;childLayout=tableLayout;fixedRows=1;rowLines=0;fontStyle=1;align=center;resizeLast=1;" vertex="1" parent="1">
          <mxGeometry x="1090" y="494" width="250" height="130" as="geometry" />
        </mxCell>
        <mxCell id="vgn4jwHnuVWzBRhZKFmy-11" value="" style="shape=partialRectangle;collapsible=0;dropTarget=0;pointerEvents=0;fillColor=none;points=[[0,0.5],[1,0.5]];portConstraint=eastwest;top=0;left=0;right=0;bottom=0;" vertex="1" parent="vgn4jwHnuVWzBRhZKFmy-10">
          <mxGeometry y="30" width="250" height="30" as="geometry" />
        </mxCell>
        <mxCell id="vgn4jwHnuVWzBRhZKFmy-12" value="" style="shape=partialRectangle;overflow=hidden;connectable=0;fillColor=none;top=0;left=0;bottom=0;right=0;" vertex="1" parent="vgn4jwHnuVWzBRhZKFmy-11">
          <mxGeometry width="30" height="30" as="geometry">
            <mxRectangle width="30" height="30" as="alternateBounds" />
          </mxGeometry>
        </mxCell>
        <mxCell id="vgn4jwHnuVWzBRhZKFmy-13" value="section_id" style="shape=partialRectangle;overflow=hidden;connectable=0;fillColor=none;top=0;left=0;bottom=0;right=0;align=left;spacingLeft=6;" vertex="1" parent="vgn4jwHnuVWzBRhZKFmy-11">
          <mxGeometry x="30" width="220" height="30" as="geometry">
            <mxRectangle width="220" height="30" as="alternateBounds" />
          </mxGeometry>
        </mxCell>
        <mxCell id="vgn4jwHnuVWzBRhZKFmy-14" value="" style="shape=partialRectangle;collapsible=0;dropTarget=0;pointerEvents=0;fillColor=none;points=[[0,0.5],[1,0.5]];portConstraint=eastwest;top=0;left=0;right=0;bottom=0;" vertex="1" parent="vgn4jwHnuVWzBRhZKFmy-10">
          <mxGeometry y="60" width="250" height="30" as="geometry" />
        </mxCell>
        <mxCell id="vgn4jwHnuVWzBRhZKFmy-15" value="" style="shape=partialRectangle;overflow=hidden;connectable=0;fillColor=none;top=0;left=0;bottom=0;right=0;" vertex="1" parent="vgn4jwHnuVWzBRhZKFmy-14">
          <mxGeometry width="30" height="30" as="geometry">
            <mxRectangle width="30" height="30" as="alternateBounds" />
          </mxGeometry>
        </mxCell>
        <mxCell id="vgn4jwHnuVWzBRhZKFmy-16" value="semester" style="shape=partialRectangle;overflow=hidden;connectable=0;fillColor=none;top=0;left=0;bottom=0;right=0;align=left;spacingLeft=6;" vertex="1" parent="vgn4jwHnuVWzBRhZKFmy-14">
          <mxGeometry x="30" width="220" height="30" as="geometry">
            <mxRectangle width="220" height="30" as="alternateBounds" />
          </mxGeometry>
        </mxCell>
        <mxCell id="vgn4jwHnuVWzBRhZKFmy-17" value="" style="shape=partialRectangle;collapsible=0;dropTarget=0;pointerEvents=0;fillColor=none;points=[[0,0.5],[1,0.5]];portConstraint=eastwest;top=0;left=0;right=0;bottom=0;" vertex="1" parent="vgn4jwHnuVWzBRhZKFmy-10">
          <mxGeometry y="90" width="250" height="30" as="geometry" />
        </mxCell>
        <mxCell id="vgn4jwHnuVWzBRhZKFmy-18" value="" style="shape=partialRectangle;overflow=hidden;connectable=0;fillColor=none;top=0;left=0;bottom=0;right=0;" vertex="1" parent="vgn4jwHnuVWzBRhZKFmy-17">
          <mxGeometry width="30" height="30" as="geometry">
            <mxRectangle width="30" height="30" as="alternateBounds" />
          </mxGeometry>
        </mxCell>
        <mxCell id="vgn4jwHnuVWzBRhZKFmy-19" value="year" style="shape=partialRectangle;overflow=hidden;connectable=0;fillColor=none;top=0;left=0;bottom=0;right=0;align=left;spacingLeft=6;" vertex="1" parent="vgn4jwHnuVWzBRhZKFmy-17">
          <mxGeometry x="30" width="220" height="30" as="geometry">
            <mxRectangle width="220" height="30" as="alternateBounds" />
          </mxGeometry>
        </mxCell>
        <mxCell id="vgn4jwHnuVWzBRhZKFmy-20" value="Course" style="shape=table;startSize=30;container=1;collapsible=1;childLayout=tableLayout;fixedRows=1;rowLines=0;fontStyle=1;align=center;resizeLast=1;" vertex="1" parent="1">
          <mxGeometry x="1640" y="494" width="250" height="130" as="geometry" />
        </mxCell>
        <mxCell id="vgn4jwHnuVWzBRhZKFmy-21" value="" style="shape=partialRectangle;collapsible=0;dropTarget=0;pointerEvents=0;fillColor=none;points=[[0,0.5],[1,0.5]];portConstraint=eastwest;top=0;left=0;right=0;bottom=0;" vertex="1" parent="vgn4jwHnuVWzBRhZKFmy-20">
          <mxGeometry y="30" width="250" height="30" as="geometry" />
        </mxCell>
        <mxCell id="vgn4jwHnuVWzBRhZKFmy-22" value="" style="shape=partialRectangle;overflow=hidden;connectable=0;fillColor=none;top=0;left=0;bottom=0;right=0;" vertex="1" parent="vgn4jwHnuVWzBRhZKFmy-21">
          <mxGeometry width="30" height="30" as="geometry">
            <mxRectangle width="30" height="30" as="alternateBounds" />
          </mxGeometry>
        </mxCell>
        <mxCell id="vgn4jwHnuVWzBRhZKFmy-23" value="c_id" style="shape=partialRectangle;overflow=hidden;connectable=0;fillColor=none;top=0;left=0;bottom=0;right=0;align=left;spacingLeft=6;fontStyle=7" vertex="1" parent="vgn4jwHnuVWzBRhZKFmy-21">
          <mxGeometry x="30" width="220" height="30" as="geometry">
            <mxRectangle width="220" height="30" as="alternateBounds" />
          </mxGeometry>
        </mxCell>
        <mxCell id="vgn4jwHnuVWzBRhZKFmy-24" value="" style="shape=partialRectangle;collapsible=0;dropTarget=0;pointerEvents=0;fillColor=none;points=[[0,0.5],[1,0.5]];portConstraint=eastwest;top=0;left=0;right=0;bottom=0;" vertex="1" parent="vgn4jwHnuVWzBRhZKFmy-20">
          <mxGeometry y="60" width="250" height="30" as="geometry" />
        </mxCell>
        <mxCell id="vgn4jwHnuVWzBRhZKFmy-25" value="" style="shape=partialRectangle;overflow=hidden;connectable=0;fillColor=none;top=0;left=0;bottom=0;right=0;" vertex="1" parent="vgn4jwHnuVWzBRhZKFmy-24">
          <mxGeometry width="30" height="30" as="geometry">
            <mxRectangle width="30" height="30" as="alternateBounds" />
          </mxGeometry>
        </mxCell>
        <mxCell id="vgn4jwHnuVWzBRhZKFmy-26" value="course_name" style="shape=partialRectangle;overflow=hidden;connectable=0;fillColor=none;top=0;left=0;bottom=0;right=0;align=left;spacingLeft=6;" vertex="1" parent="vgn4jwHnuVWzBRhZKFmy-24">
          <mxGeometry x="30" width="220" height="30" as="geometry">
            <mxRectangle width="220" height="30" as="alternateBounds" />
          </mxGeometry>
        </mxCell>
        <mxCell id="vgn4jwHnuVWzBRhZKFmy-27" value="" style="shape=partialRectangle;collapsible=0;dropTarget=0;pointerEvents=0;fillColor=none;points=[[0,0.5],[1,0.5]];portConstraint=eastwest;top=0;left=0;right=0;bottom=0;" vertex="1" parent="vgn4jwHnuVWzBRhZKFmy-20">
          <mxGeometry y="90" width="250" height="30" as="geometry" />
        </mxCell>
        <mxCell id="vgn4jwHnuVWzBRhZKFmy-28" value="" style="shape=partialRectangle;overflow=hidden;connectable=0;fillColor=none;top=0;left=0;bottom=0;right=0;" vertex="1" parent="vgn4jwHnuVWzBRhZKFmy-27">
          <mxGeometry width="30" height="30" as="geometry">
            <mxRectangle width="30" height="30" as="alternateBounds" />
          </mxGeometry>
        </mxCell>
        <mxCell id="vgn4jwHnuVWzBRhZKFmy-29" value="credits" style="shape=partialRectangle;overflow=hidden;connectable=0;fillColor=none;top=0;left=0;bottom=0;right=0;align=left;spacingLeft=6;" vertex="1" parent="vgn4jwHnuVWzBRhZKFmy-27">
          <mxGeometry x="30" width="220" height="30" as="geometry">
            <mxRectangle width="220" height="30" as="alternateBounds" />
          </mxGeometry>
        </mxCell>
        <mxCell id="vgn4jwHnuVWzBRhZKFmy-30" value="Exam" style="shape=table;startSize=30;container=1;collapsible=1;childLayout=tableLayout;fixedRows=1;rowLines=0;fontStyle=1;align=center;resizeLast=1;" vertex="1" parent="1">
          <mxGeometry x="820" y="150" width="250" height="130" as="geometry" />
        </mxCell>
        <mxCell id="vgn4jwHnuVWzBRhZKFmy-31" value="" style="shape=partialRectangle;collapsible=0;dropTarget=0;pointerEvents=0;fillColor=none;points=[[0,0.5],[1,0.5]];portConstraint=eastwest;top=0;left=0;right=0;bottom=0;fontStyle=4" vertex="1" parent="vgn4jwHnuVWzBRhZKFmy-30">
          <mxGeometry y="30" width="250" height="30" as="geometry" />
        </mxCell>
        <mxCell id="vgn4jwHnuVWzBRhZKFmy-32" value="" style="shape=partialRectangle;overflow=hidden;connectable=0;fillColor=none;top=0;left=0;bottom=0;right=0;" vertex="1" parent="vgn4jwHnuVWzBRhZKFmy-31">
          <mxGeometry width="30" height="30" as="geometry">
            <mxRectangle width="30" height="30" as="alternateBounds" />
          </mxGeometry>
        </mxCell>
        <mxCell id="vgn4jwHnuVWzBRhZKFmy-33" value="exam_id" style="shape=partialRectangle;overflow=hidden;connectable=0;fillColor=none;top=0;left=0;bottom=0;right=0;align=left;spacingLeft=6;fontStyle=7" vertex="1" parent="vgn4jwHnuVWzBRhZKFmy-31">
          <mxGeometry x="30" width="220" height="30" as="geometry">
            <mxRectangle width="220" height="30" as="alternateBounds" />
          </mxGeometry>
        </mxCell>
        <mxCell id="vgn4jwHnuVWzBRhZKFmy-34" value="" style="shape=partialRectangle;collapsible=0;dropTarget=0;pointerEvents=0;fillColor=none;points=[[0,0.5],[1,0.5]];portConstraint=eastwest;top=0;left=0;right=0;bottom=0;" vertex="1" parent="vgn4jwHnuVWzBRhZKFmy-30">
          <mxGeometry y="60" width="250" height="30" as="geometry" />
        </mxCell>
        <mxCell id="vgn4jwHnuVWzBRhZKFmy-35" value="" style="shape=partialRectangle;overflow=hidden;connectable=0;fillColor=none;top=0;left=0;bottom=0;right=0;" vertex="1" parent="vgn4jwHnuVWzBRhZKFmy-34">
          <mxGeometry width="30" height="30" as="geometry">
            <mxRectangle width="30" height="30" as="alternateBounds" />
          </mxGeometry>
        </mxCell>
        <mxCell id="vgn4jwHnuVWzBRhZKFmy-36" value="exam_name" style="shape=partialRectangle;overflow=hidden;connectable=0;fillColor=none;top=0;left=0;bottom=0;right=0;align=left;spacingLeft=6;" vertex="1" parent="vgn4jwHnuVWzBRhZKFmy-34">
          <mxGeometry x="30" width="220" height="30" as="geometry">
            <mxRectangle width="220" height="30" as="alternateBounds" />
          </mxGeometry>
        </mxCell>
        <mxCell id="vgn4jwHnuVWzBRhZKFmy-37" value="" style="shape=partialRectangle;collapsible=0;dropTarget=0;pointerEvents=0;fillColor=none;points=[[0,0.5],[1,0.5]];portConstraint=eastwest;top=0;left=0;right=0;bottom=0;" vertex="1" parent="vgn4jwHnuVWzBRhZKFmy-30">
          <mxGeometry y="90" width="250" height="30" as="geometry" />
        </mxCell>
        <mxCell id="vgn4jwHnuVWzBRhZKFmy-38" value="" style="shape=partialRectangle;overflow=hidden;connectable=0;fillColor=none;top=0;left=0;bottom=0;right=0;" vertex="1" parent="vgn4jwHnuVWzBRhZKFmy-37">
          <mxGeometry width="30" height="30" as="geometry">
            <mxRectangle width="30" height="30" as="alternateBounds" />
          </mxGeometry>
        </mxCell>
        <mxCell id="vgn4jwHnuVWzBRhZKFmy-39" value="time" style="shape=partialRectangle;overflow=hidden;connectable=0;fillColor=none;top=0;left=0;bottom=0;right=0;align=left;spacingLeft=6;" vertex="1" parent="vgn4jwHnuVWzBRhZKFmy-37">
          <mxGeometry x="30" width="220" height="30" as="geometry">
            <mxRectangle width="220" height="30" as="alternateBounds" />
          </mxGeometry>
        </mxCell>
        <mxCell id="vgn4jwHnuVWzBRhZKFmy-41" value="" style="endArrow=none;html=1;rounded=0;dashed=1;dashPattern=1 2;" edge="1" parent="1">
          <mxGeometry relative="1" as="geometry">
            <mxPoint x="1120" y="558.0899999999999" as="sourcePoint" />
            <mxPoint x="1280" y="558.0899999999999" as="targetPoint" />
          </mxGeometry>
        </mxCell>
        <mxCell id="vgn4jwHnuVWzBRhZKFmy-44" value="" style="endArrow=none;html=1;rounded=0;dashed=1;dashPattern=1 2;" edge="1" parent="1">
          <mxGeometry relative="1" as="geometry">
            <mxPoint x="1120" y="579.9999999999999" as="sourcePoint" />
            <mxPoint x="1280" y="579.9999999999999" as="targetPoint" />
          </mxGeometry>
        </mxCell>
        <mxCell id="vgn4jwHnuVWzBRhZKFmy-45" value="" style="endArrow=none;html=1;rounded=0;dashed=1;dashPattern=1 2;" edge="1" parent="1">
          <mxGeometry relative="1" as="geometry">
            <mxPoint x="1130" y="609.9999999999999" as="sourcePoint" />
            <mxPoint x="1290" y="609.9999999999999" as="targetPoint" />
          </mxGeometry>
        </mxCell>
        <mxCell id="vgn4jwHnuVWzBRhZKFmy-46" value="take" style="shape=rhombus;perimeter=rhombusPerimeter;whiteSpace=wrap;html=1;align=center;" vertex="1" parent="1">
          <mxGeometry x="890" y="530" width="120" height="60" as="geometry" />
        </mxCell>
        <mxCell id="vgn4jwHnuVWzBRhZKFmy-47" value="link" style="shape=rhombus;double=1;perimeter=rhombusPerimeter;whiteSpace=wrap;html=1;align=center;" vertex="1" parent="1">
          <mxGeometry x="1430" y="540" width="120" height="60" as="geometry" />
        </mxCell>
        <mxCell id="vgn4jwHnuVWzBRhZKFmy-48" value="" style="endArrow=none;html=1;rounded=0;exitX=1.004;exitY=0.989;exitDx=0;exitDy=0;exitPerimeter=0;entryX=0.006;entryY=0.602;entryDx=0;entryDy=0;entryPerimeter=0;" edge="1" parent="1" source="vgn4jwHnuVWzBRhZKFmy-14" target="vgn4jwHnuVWzBRhZKFmy-47">
          <mxGeometry relative="1" as="geometry">
            <mxPoint x="1330" y="560" as="sourcePoint" />
            <mxPoint x="1490" y="560" as="targetPoint" />
          </mxGeometry>
        </mxCell>
        <mxCell id="vgn4jwHnuVWzBRhZKFmy-49" value="" style="endArrow=none;html=1;rounded=0;entryX=-0.014;entryY=0.448;entryDx=0;entryDy=0;entryPerimeter=0;exitX=0.977;exitY=0.467;exitDx=0;exitDy=0;exitPerimeter=0;" edge="1" parent="1" source="vgn4jwHnuVWzBRhZKFmy-47" target="vgn4jwHnuVWzBRhZKFmy-24">
          <mxGeometry relative="1" as="geometry">
            <mxPoint x="1550" y="580" as="sourcePoint" />
            <mxPoint x="1441" y="586" as="targetPoint" />
          </mxGeometry>
        </mxCell>
        <mxCell id="vgn4jwHnuVWzBRhZKFmy-50" value="" style="endArrow=none;html=1;rounded=0;dashed=1;dashPattern=1 2;exitX=0.487;exitY=1.049;exitDx=0;exitDy=0;exitPerimeter=0;" edge="1" parent="1" source="vgn4jwHnuVWzBRhZKFmy-46">
          <mxGeometry relative="1" as="geometry">
            <mxPoint x="950" y="600" as="sourcePoint" />
            <mxPoint x="950" y="670" as="targetPoint" />
          </mxGeometry>
        </mxCell>
        <mxCell id="vgn4jwHnuVWzBRhZKFmy-52" value="Mark" style="rounded=1;arcSize=10;whiteSpace=wrap;html=1;align=center;" vertex="1" parent="1">
          <mxGeometry x="900" y="670" width="100" height="40" as="geometry" />
        </mxCell>
        <mxCell id="vgn4jwHnuVWzBRhZKFmy-53" value="" style="endArrow=none;html=1;rounded=0;exitX=1.003;exitY=0.293;exitDx=0;exitDy=0;exitPerimeter=0;entryX=0.004;entryY=0.556;entryDx=0;entryDy=0;entryPerimeter=0;" edge="1" parent="1" source="C-vyLk0tnHw3VtMMgP7b-9" target="vgn4jwHnuVWzBRhZKFmy-46">
          <mxGeometry relative="1" as="geometry">
            <mxPoint x="810" y="580" as="sourcePoint" />
            <mxPoint x="970" y="580" as="targetPoint" />
          </mxGeometry>
        </mxCell>
        <mxCell id="vgn4jwHnuVWzBRhZKFmy-54" value="" style="endArrow=none;html=1;rounded=0;exitX=0.999;exitY=0.518;exitDx=0;exitDy=0;exitPerimeter=0;entryX=-0.014;entryY=1.177;entryDx=0;entryDy=0;entryPerimeter=0;" edge="1" parent="1" source="vgn4jwHnuVWzBRhZKFmy-46" target="vgn4jwHnuVWzBRhZKFmy-11">
          <mxGeometry relative="1" as="geometry">
            <mxPoint x="970" y="490" as="sourcePoint" />
            <mxPoint x="1130" y="490" as="targetPoint" />
          </mxGeometry>
        </mxCell>
        <mxCell id="vgn4jwHnuVWzBRhZKFmy-55" value="" style="endArrow=none;html=1;rounded=0;exitX=0.502;exitY=1.098;exitDx=0;exitDy=0;exitPerimeter=0;entryX=0.487;entryY=-0.081;entryDx=0;entryDy=0;entryPerimeter=0;" edge="1" parent="1" source="vgn4jwHnuVWzBRhZKFmy-37" target="vgn4jwHnuVWzBRhZKFmy-46">
          <mxGeometry relative="1" as="geometry">
            <mxPoint x="870" y="430" as="sourcePoint" />
            <mxPoint x="1030" y="430" as="targetPoint" />
          </mxGeometry>
        </mxCell>
      </root>
    </mxGraphModel>
  </diagram>
</mxfile>
